<svg id="svg" version="1.1" xmlns="http://www.w3.org/2000/svg" xmlns:xlink="http://www.w3.org/1999/xlink" width="400" height="41.50943396226415" viewBox="0, 0, 400,41.50943396226415"><g id="svgg"><path id="path0" d="M54.500 0.313 C 54.087 0.477,53.450 0.812,53.083 1.058 C 52.717 1.305,52.277 1.598,52.106 1.711 C 51.548 2.080,49.852 3.405,49.176 4.000 C 44.687 7.949,43.233 9.333,43.575 9.333 C 43.892 9.333,45.222 9.067,47.083 8.632 C 48.653 8.265,49.218 7.945,50.848 6.500 C 51.106 6.271,51.490 5.955,51.701 5.797 C 51.911 5.640,52.389 5.265,52.762 4.964 C 53.135 4.663,53.651 4.267,53.908 4.083 C 54.165 3.900,54.594 3.572,54.861 3.354 C 55.129 3.137,55.398 3.009,55.461 3.072 C 55.523 3.134,55.499 3.237,55.407 3.301 C 55.316 3.364,55.094 3.754,54.914 4.167 C 54.735 4.579,54.455 5.062,54.294 5.240 C 54.132 5.417,54.000 5.664,54.000 5.787 C 54.000 5.910,53.887 6.054,53.750 6.106 C 53.612 6.159,53.500 6.295,53.500 6.409 C 53.500 6.522,53.349 6.752,53.164 6.919 C 52.980 7.086,52.867 7.343,52.913 7.489 C 53.010 7.795,50.117 11.000,49.744 11.000 C 49.618 11.000,49.018 11.487,48.410 12.083 C 47.803 12.679,47.242 13.167,47.165 13.167 C 47.088 13.167,46.887 13.335,46.720 13.542 C 46.552 13.748,46.078 14.190,45.666 14.523 C 45.254 14.857,44.755 15.269,44.558 15.440 C 43.256 16.564,40.905 18.288,40.496 18.418 C 40.332 18.470,40.155 18.622,40.104 18.756 C 40.053 18.890,39.910 19.000,39.788 19.000 C 39.665 19.000,39.311 19.187,39.000 19.417 C 38.209 20.000,37.809 19.967,38.385 19.366 C 38.632 19.109,38.833 18.849,38.833 18.788 C 38.833 18.669,39.118 18.337,40.257 17.129 C 40.666 16.696,41.001 16.284,41.002 16.213 C 41.003 16.142,41.275 15.821,41.606 15.500 C 41.938 15.179,42.406 14.659,42.646 14.343 C 42.887 14.028,43.417 13.449,43.825 13.057 C 44.775 12.144,44.739 12.129,42.750 12.605 C 39.475 13.389,38.993 13.596,38.198 14.552 C 36.889 16.127,36.254 16.862,35.875 17.244 C 35.669 17.452,35.500 17.705,35.500 17.807 C 35.500 17.909,35.313 18.115,35.083 18.265 C 34.854 18.415,34.667 18.611,34.667 18.699 C 34.667 18.788,34.404 19.181,34.083 19.572 C 33.762 19.964,33.500 20.370,33.500 20.475 C 33.500 20.581,33.429 20.667,33.341 20.667 C 33.254 20.667,33.058 20.929,32.905 21.250 C 32.753 21.571,32.571 21.833,32.501 21.833 C 32.431 21.833,32.280 22.061,32.165 22.338 C 32.015 22.699,31.724 22.943,31.144 23.192 C 30.698 23.384,30.333 23.595,30.333 23.661 C 30.333 23.726,30.033 23.879,29.667 24.000 C 29.300 24.121,29.000 24.275,29.000 24.343 C 29.000 24.411,28.625 24.601,28.167 24.766 C 27.708 24.931,27.333 25.119,27.333 25.183 C 27.333 25.247,26.958 25.435,26.500 25.600 C 26.042 25.764,25.667 25.954,25.667 26.021 C 25.667 26.088,25.254 26.263,24.750 26.409 C 24.246 26.556,23.833 26.734,23.833 26.805 C 23.833 26.876,23.458 27.069,23.000 27.234 C 22.542 27.399,22.166 27.582,22.165 27.642 C 22.164 27.701,21.714 27.890,21.165 28.061 C 20.616 28.233,20.167 28.431,20.167 28.502 C 20.167 28.572,19.976 28.678,19.744 28.737 C 19.511 28.795,18.834 29.066,18.240 29.338 C 17.645 29.610,17.053 29.833,16.924 29.833 C 16.796 29.833,16.591 29.930,16.470 30.048 C 16.266 30.247,15.328 30.638,13.500 31.287 C 13.088 31.433,12.713 31.609,12.667 31.677 C 12.621 31.745,12.152 31.925,11.625 32.079 C 11.098 32.232,10.667 32.411,10.667 32.477 C 10.667 32.543,10.142 32.741,9.500 32.917 C 8.858 33.092,8.333 33.286,8.333 33.348 C 8.333 33.409,7.808 33.595,7.167 33.762 C 6.525 33.928,6.000 34.116,6.000 34.180 C 6.000 34.244,5.494 34.431,4.875 34.596 C 4.256 34.761,3.712 34.941,3.667 34.995 C 3.621 35.050,3.209 35.208,2.751 35.347 C 2.174 35.522,1.899 35.699,1.856 35.925 C 1.823 36.104,1.738 36.287,1.669 36.333 C 1.601 36.379,1.414 36.867,1.256 37.417 C 1.097 37.967,0.913 38.454,0.847 38.500 C 0.687 38.612,-0.070 41.319,0.031 41.420 C 0.143 41.532,2.346 40.832,2.745 40.558 C 2.926 40.435,3.168 40.333,3.282 40.333 C 3.397 40.333,3.886 40.155,4.370 39.937 C 4.854 39.720,5.519 39.455,5.847 39.350 C 6.175 39.245,6.735 39.011,7.091 38.830 C 7.446 38.648,7.847 38.500,7.980 38.500 C 8.114 38.500,8.342 38.401,8.487 38.280 C 8.632 38.158,9.069 37.959,9.458 37.836 C 9.848 37.714,10.167 37.567,10.167 37.510 C 10.167 37.453,10.508 37.305,10.926 37.182 C 11.343 37.059,11.775 36.871,11.884 36.766 C 11.994 36.661,12.552 36.426,13.125 36.246 C 13.698 36.065,14.167 35.871,14.167 35.814 C 14.167 35.758,14.523 35.577,14.958 35.413 C 15.394 35.248,15.787 35.066,15.833 35.008 C 15.879 34.950,16.245 34.797,16.647 34.667 C 17.049 34.538,17.465 34.345,17.571 34.238 C 17.678 34.131,17.950 33.990,18.174 33.924 C 18.399 33.858,19.483 33.369,20.583 32.838 C 21.683 32.306,22.977 31.695,23.458 31.478 C 23.940 31.262,24.333 31.029,24.333 30.959 C 24.333 30.890,24.413 30.833,24.510 30.833 C 24.742 30.833,27.465 29.537,28.000 29.172 C 28.870 28.578,28.940 28.618,28.759 29.603 C 28.669 30.096,28.536 30.500,28.464 30.500 C 28.280 30.500,28.301 33.610,28.487 33.961 C 28.572 34.120,28.730 34.601,28.839 35.031 C 29.049 35.858,29.232 36.149,30.170 37.153 C 30.756 37.780,31.473 38.269,31.708 38.202 C 31.777 38.183,31.833 38.236,31.833 38.320 C 31.833 38.405,32.115 38.565,32.458 38.675 C 32.802 38.786,33.161 38.938,33.256 39.012 C 34.008 39.603,40.777 39.603,41.583 39.012 C 41.675 38.944,42.181 38.790,42.708 38.668 C 43.235 38.546,43.667 38.379,43.667 38.297 C 43.667 38.214,43.739 38.191,43.827 38.246 C 43.914 38.300,44.121 38.269,44.285 38.176 C 44.449 38.083,44.902 37.928,45.292 37.831 C 45.681 37.733,46.000 37.597,46.000 37.527 C 46.000 37.457,46.487 37.260,47.083 37.090 C 47.679 36.919,48.167 36.727,48.167 36.663 C 48.167 36.598,48.523 36.411,48.958 36.246 C 49.394 36.082,49.788 35.898,49.833 35.838 C 49.879 35.779,50.629 35.375,51.500 34.941 C 52.371 34.508,53.458 33.935,53.917 33.669 C 54.375 33.402,54.994 33.067,55.292 32.923 C 55.590 32.780,55.833 32.588,55.833 32.498 C 55.833 32.407,55.935 32.333,56.058 32.333 C 56.182 32.333,56.581 32.118,56.945 31.854 C 57.309 31.591,57.770 31.323,57.970 31.260 C 58.170 31.196,58.333 31.091,58.333 31.027 C 58.333 30.962,58.615 30.762,58.958 30.581 C 59.302 30.401,59.643 30.159,59.717 30.043 C 59.790 29.928,59.947 29.833,60.066 29.833 C 60.185 29.833,60.401 29.702,60.547 29.542 C 60.693 29.381,61.098 29.100,61.448 28.917 C 61.797 28.735,62.181 28.453,62.301 28.292 C 62.421 28.132,62.623 28.000,62.751 28.000 C 62.879 28.000,63.043 27.906,63.117 27.792 C 63.248 27.586,63.693 27.269,64.154 27.053 C 64.284 26.992,64.528 26.824,64.696 26.679 C 65.400 26.072,65.649 25.884,66.592 25.250 C 67.137 24.883,67.609 24.526,67.640 24.455 C 67.671 24.384,67.915 24.213,68.182 24.076 C 68.667 23.824,68.833 23.289,68.490 23.077 C 68.292 22.955,67.340 23.286,67.083 23.567 C 66.992 23.668,66.654 23.886,66.333 24.053 C 65.165 24.660,64.611 24.987,64.515 25.127 C 64.461 25.205,64.154 25.370,63.833 25.494 C 63.512 25.617,63.170 25.814,63.073 25.931 C 62.976 26.048,62.563 26.275,62.157 26.435 C 61.750 26.595,61.364 26.812,61.300 26.917 C 61.236 27.022,60.879 27.208,60.508 27.331 C 60.137 27.453,59.833 27.606,59.833 27.671 C 59.833 27.735,59.496 27.917,59.083 28.074 C 58.671 28.232,58.333 28.420,58.333 28.491 C 58.333 28.563,57.977 28.756,57.542 28.920 C 57.106 29.085,56.712 29.266,56.667 29.323 C 56.621 29.380,55.608 29.909,54.417 30.500 C 53.225 31.091,52.212 31.616,52.167 31.668 C 52.121 31.720,51.652 31.907,51.125 32.083 C 50.598 32.258,50.167 32.455,50.167 32.519 C 50.167 32.583,49.754 32.765,49.250 32.924 C 48.746 33.083,48.333 33.262,48.333 33.323 C 48.333 33.384,47.846 33.573,47.250 33.744 C 46.654 33.914,46.167 34.105,46.167 34.169 C 46.167 34.232,45.668 34.419,45.058 34.584 C 44.449 34.749,43.755 34.979,43.517 35.096 C 43.278 35.212,42.596 35.400,42.000 35.514 C 41.404 35.627,40.865 35.799,40.802 35.894 C 40.553 36.275,35.837 36.125,34.960 35.708 C 34.526 35.502,34.111 35.333,34.039 35.333 C 33.841 35.333,32.833 34.376,32.833 34.188 C 32.833 34.098,32.702 33.892,32.542 33.731 C 32.203 33.392,32.131 30.228,32.457 30.026 C 32.554 29.966,32.759 29.485,32.912 28.958 C 33.065 28.431,33.248 28.000,33.318 28.000 C 33.389 28.000,33.548 27.692,33.673 27.316 C 33.797 26.939,33.989 26.596,34.101 26.554 C 34.212 26.511,34.348 26.296,34.404 26.076 C 34.459 25.856,34.672 25.588,34.877 25.480 C 35.082 25.372,35.287 25.228,35.333 25.160 C 35.379 25.093,35.679 24.913,36.000 24.760 C 36.887 24.338,37.709 23.864,37.819 23.714 C 37.873 23.639,38.235 23.429,38.623 23.247 C 39.012 23.066,39.330 22.872,39.331 22.817 C 39.332 22.762,39.633 22.582,40.000 22.417 C 40.367 22.251,40.667 22.064,40.667 22.000 C 40.667 21.936,40.962 21.751,41.324 21.588 C 41.685 21.425,42.020 21.188,42.068 21.062 C 42.117 20.936,42.235 20.833,42.332 20.833 C 42.497 20.833,43.834 19.968,44.349 19.528 C 44.478 19.418,45.071 18.960,45.667 18.511 C 46.262 18.061,46.975 17.500,47.250 17.263 C 47.525 17.026,48.001 16.627,48.309 16.375 C 48.858 15.924,53.658 11.149,54.380 10.333 C 54.584 10.104,54.753 9.766,54.757 9.581 C 54.761 9.397,55.068 8.834,55.439 8.331 C 55.809 7.828,56.203 7.248,56.312 7.042 C 56.422 6.835,56.624 6.667,56.761 6.667 C 57.313 6.667,58.331 3.828,58.332 2.283 C 58.334 0.238,56.747 -0.578,54.500 0.313 " stroke="none" fill="#63cb04" fill-rule="evenodd"></path><path id="path1" d="M85.709 0.848 C 85.640 0.912,85.208 1.009,84.750 1.063 C 84.292 1.116,83.467 1.248,82.917 1.354 C 82.367 1.460,81.804 1.564,81.667 1.584 C 81.529 1.604,81.304 1.662,81.167 1.712 C 81.029 1.763,80.242 1.930,79.417 2.083 C 78.592 2.236,77.804 2.382,77.667 2.407 C 77.529 2.433,77.304 2.495,77.167 2.546 C 76.932 2.633,76.192 2.760,74.833 2.946 C 74.512 2.990,73.908 3.124,73.489 3.245 C 73.071 3.365,72.043 3.561,71.206 3.679 C 70.370 3.798,69.714 3.942,69.750 4.000 C 69.786 4.058,68.845 4.244,67.658 4.412 C 66.471 4.580,65.500 4.769,65.500 4.832 C 65.500 4.895,64.581 5.082,63.458 5.247 C 62.335 5.412,61.379 5.600,61.333 5.665 C 61.288 5.730,60.355 5.917,59.260 6.081 C 57.990 6.271,57.171 6.476,56.995 6.648 C 56.436 7.193,54.828 9.667,55.036 9.662 C 55.153 9.660,55.869 9.518,56.625 9.347 C 57.381 9.176,58.001 9.084,58.003 9.143 C 58.004 9.202,58.060 9.166,58.128 9.064 C 58.232 8.905,60.665 8.306,61.292 8.285 C 61.406 8.281,61.500 8.230,61.500 8.171 C 61.500 8.112,62.194 7.924,63.042 7.754 C 63.890 7.584,64.621 7.394,64.667 7.331 C 64.712 7.269,65.462 7.083,66.333 6.917 C 67.204 6.751,67.954 6.566,68.000 6.507 C 68.095 6.383,70.433 5.821,70.872 5.816 C 71.030 5.814,71.199 5.749,71.247 5.671 C 71.295 5.594,71.859 5.436,72.501 5.322 C 73.142 5.207,73.667 5.057,73.667 4.988 C 73.667 4.919,73.798 4.882,73.958 4.906 C 74.119 4.930,74.362 4.892,74.500 4.821 C 74.779 4.677,76.778 4.166,77.167 4.139 C 77.304 4.129,77.492 4.068,77.583 4.002 C 77.675 3.937,78.237 3.784,78.833 3.664 C 79.429 3.543,79.954 3.394,80.000 3.333 C 80.076 3.232,81.354 2.923,82.583 2.708 C 82.858 2.660,83.121 2.567,83.167 2.501 C 83.212 2.435,83.850 2.251,84.583 2.093 C 86.342 1.714,87.167 1.352,87.167 0.961 C 87.167 0.647,86.022 0.559,85.709 0.848 M204.153 6.235 C 204.115 6.273,203.821 6.336,203.500 6.375 C 203.179 6.414,202.804 6.490,202.667 6.545 C 202.529 6.600,202.017 6.725,201.530 6.823 C 200.537 7.023,198.975 7.712,198.663 8.087 C 198.551 8.223,198.365 8.333,198.249 8.333 C 198.133 8.333,197.764 8.652,197.428 9.042 C 196.563 10.044,196.568 10.037,196.314 10.761 C 196.188 11.122,196.010 11.470,195.918 11.536 C 195.659 11.719,195.697 16.038,195.958 16.125 C 196.073 16.163,196.167 16.302,196.167 16.433 C 196.167 16.564,196.260 16.833,196.375 17.030 C 196.620 17.451,198.167 19.085,198.167 18.922 C 198.167 18.861,198.373 18.952,198.625 19.126 C 199.224 19.537,200.125 19.946,200.750 20.089 C 201.025 20.152,201.550 20.298,201.917 20.413 C 202.283 20.529,203.202 20.717,203.958 20.832 C 204.715 20.947,205.333 21.107,205.333 21.187 C 205.333 21.268,205.470 21.333,205.637 21.333 C 206.771 21.333,208.369 22.335,208.580 23.179 C 208.708 23.689,208.255 24.816,207.870 24.942 C 207.712 24.993,207.358 25.132,207.083 25.249 C 206.028 25.700,201.526 25.656,201.167 25.191 C 201.121 25.132,201.008 25.071,200.917 25.056 C 200.370 24.968,198.556 24.450,198.417 24.342 C 198.098 24.097,196.711 23.703,196.544 23.809 C 196.451 23.868,196.318 24.178,196.249 24.498 C 196.180 24.817,196.002 25.264,195.853 25.490 C 195.705 25.717,195.610 25.905,195.643 25.909 C 195.747 25.922,195.307 27.409,195.138 27.615 C 194.722 28.123,195.056 28.703,195.917 28.972 C 196.375 29.115,196.788 29.286,196.835 29.353 C 196.941 29.504,199.046 30.000,199.580 30.000 C 199.796 30.000,200.003 30.094,200.042 30.208 C 200.164 30.574,208.772 30.497,209.417 30.124 C 209.692 29.965,210.049 29.835,210.211 29.834 C 210.621 29.833,211.833 29.442,211.833 29.311 C 211.833 29.251,212.013 29.158,212.232 29.103 C 212.719 28.981,214.828 27.109,215.149 26.514 C 215.277 26.277,215.443 26.043,215.517 25.995 C 216.422 25.401,216.329 20.480,215.389 19.234 C 215.175 18.951,215.000 18.634,215.000 18.530 C 215.000 18.427,214.775 18.226,214.500 18.083 C 214.225 17.941,214.000 17.765,214.000 17.692 C 214.000 17.562,211.692 16.344,211.287 16.260 C 211.175 16.237,210.896 16.141,210.667 16.046 C 210.438 15.952,209.912 15.820,209.500 15.752 C 209.088 15.684,208.675 15.583,208.583 15.527 C 208.492 15.472,208.267 15.409,208.083 15.389 C 207.326 15.302,205.381 14.809,204.891 14.580 C 204.603 14.444,204.265 14.331,204.141 14.328 C 203.367 14.309,202.792 13.093,203.236 12.415 C 204.014 11.227,207.359 10.556,208.866 11.287 C 209.077 11.389,209.775 11.606,210.417 11.768 C 211.058 11.930,211.638 12.142,211.706 12.240 C 211.773 12.337,211.829 12.356,211.831 12.282 C 211.832 12.208,212.000 12.265,212.204 12.407 C 212.791 12.819,213.316 12.738,213.505 12.208 C 213.595 11.956,213.771 11.563,213.896 11.333 C 214.021 11.104,214.219 10.617,214.336 10.250 C 214.453 9.883,214.616 9.539,214.698 9.486 C 215.253 9.124,214.911 7.938,214.190 7.725 C 213.791 7.607,213.376 7.438,213.270 7.350 C 212.530 6.736,204.625 5.770,204.153 6.235 M83.500 9.332 L 83.500 11.833 86.917 11.833 L 90.333 11.833 90.333 20.917 L 90.333 30.000 93.750 30.000 L 97.167 30.000 97.167 20.917 L 97.167 11.833 100.504 11.833 L 103.842 11.833 103.796 9.375 L 103.750 6.917 93.625 6.874 L 83.500 6.831 83.500 9.332 M112.778 6.944 C 112.717 7.006,112.667 12.218,112.667 18.528 L 112.667 30.000 120.750 30.000 L 128.833 30.000 128.833 27.500 L 128.833 25.000 124.083 25.000 L 119.333 25.000 119.333 22.750 L 119.333 20.500 123.250 20.500 L 127.167 20.500 127.167 18.083 L 127.167 15.667 123.250 15.667 L 119.333 15.667 119.333 13.753 L 119.333 11.839 124.042 11.794 L 128.750 11.750 128.796 9.292 L 128.842 6.833 120.866 6.833 C 116.478 6.833,112.839 6.883,112.778 6.944 M140.000 18.417 L 140.000 30.000 148.333 30.000 L 156.667 30.000 156.667 27.667 L 156.667 25.333 151.750 25.333 L 146.833 25.333 146.833 16.083 L 146.833 6.833 143.417 6.833 L 140.000 6.833 140.000 18.417 M164.371 16.125 C 164.426 25.409,164.494 26.500,165.016 26.500 C 165.099 26.500,165.167 26.594,165.167 26.708 C 165.168 27.013,166.336 28.333,166.604 28.333 C 166.730 28.333,166.833 28.398,166.833 28.477 C 166.833 28.734,169.228 29.819,170.042 29.930 C 170.477 29.989,170.833 30.088,170.833 30.150 C 170.833 30.956,181.103 30.201,181.659 29.354 C 181.709 29.278,182.037 29.081,182.387 28.917 C 183.406 28.438,184.882 26.798,185.095 25.907 C 185.160 25.637,185.296 25.311,185.398 25.183 C 185.527 25.020,185.599 22.213,185.636 15.891 L 185.690 6.833 182.095 6.833 L 178.500 6.833 178.499 14.875 C 178.498 22.605,178.413 24.167,177.992 24.167 C 177.905 24.167,177.833 24.252,177.833 24.357 C 177.833 24.608,177.321 24.988,176.972 24.995 C 176.819 24.998,176.663 25.094,176.625 25.208 C 176.575 25.357,176.063 25.417,174.833 25.417 C 173.604 25.417,173.091 25.357,173.042 25.208 C 173.003 25.094,172.878 25.000,172.764 25.000 C 172.437 25.000,171.584 23.957,171.578 23.550 C 171.575 23.348,171.519 23.130,171.453 23.064 C 171.387 22.998,171.333 19.319,171.333 14.889 L 171.333 6.833 167.824 6.833 L 164.315 6.833 164.371 16.125 M218.757 7.059 C 217.628 7.496,216.999 8.704,217.257 9.942 C 217.331 10.295,217.397 10.631,217.404 10.689 C 217.425 10.865,218.224 11.604,218.614 11.809 C 219.278 12.158,221.500 11.888,221.500 11.459 C 221.500 11.373,221.657 11.176,221.850 11.020 C 222.331 10.630,222.511 8.701,222.104 8.294 C 221.955 8.145,221.833 7.960,221.833 7.882 C 221.833 7.146,219.883 6.624,218.757 7.059 M238.667 18.500 L 238.667 30.000 239.917 30.000 L 241.167 30.000 241.167 18.500 L 241.167 7.000 239.917 7.000 L 238.667 7.000 238.667 18.500 M340.167 8.750 L 340.167 10.500 341.417 10.500 L 342.667 10.500 342.667 8.750 L 342.667 7.000 341.417 7.000 L 340.167 7.000 340.167 8.750 M397.833 18.500 L 397.833 30.000 398.917 30.000 L 400.000 30.000 400.000 18.500 L 400.000 7.000 398.917 7.000 L 397.833 7.000 397.833 18.500 M50.481 7.810 C 49.692 7.960,48.922 8.187,48.771 8.314 C 48.285 8.721,43.533 9.766,43.287 9.521 C 43.208 9.442,42.647 9.484,42.031 9.616 C 40.288 9.987,38.445 10.346,38.125 10.377 C 37.965 10.392,37.833 10.450,37.833 10.506 C 37.833 10.563,37.069 10.742,36.135 10.906 C 35.201 11.069,34.320 11.262,34.177 11.334 C 33.879 11.485,31.064 12.000,30.541 12.000 C 30.350 12.000,30.169 12.060,30.139 12.133 C 30.108 12.206,29.351 12.393,28.456 12.550 C 26.351 12.918,26.430 12.901,26.333 13.011 C 26.243 13.114,23.099 13.687,22.625 13.687 C 22.465 13.687,22.333 13.746,22.333 13.817 C 22.333 13.888,21.469 14.081,20.413 14.247 C 19.357 14.413,18.536 14.591,18.589 14.644 C 18.641 14.697,17.912 14.865,16.967 15.018 C 15.001 15.337,14.781 15.383,14.667 15.505 C 14.621 15.554,13.871 15.722,13.000 15.879 C 11.088 16.223,10.984 16.245,10.667 16.379 C 10.529 16.437,10.121 16.527,9.760 16.579 C 9.107 16.674,8.922 16.760,8.911 16.972 C 8.908 17.033,8.820 17.235,8.717 17.420 C 8.614 17.605,8.477 18.036,8.413 18.378 C 8.349 18.720,8.239 19.000,8.170 19.000 C 7.991 19.000,7.461 20.968,7.586 21.171 C 7.643 21.263,7.778 21.282,7.887 21.212 C 7.995 21.142,8.571 20.995,9.167 20.886 C 11.076 20.534,11.244 20.496,11.583 20.339 C 11.767 20.254,12.485 20.072,13.179 19.935 C 14.925 19.591,14.907 19.595,15.000 19.484 C 15.046 19.429,15.721 19.260,16.500 19.109 C 18.118 18.795,18.190 18.777,18.417 18.640 C 18.508 18.585,19.127 18.444,19.792 18.326 C 20.456 18.209,21.000 18.053,21.000 17.979 C 21.000 17.904,21.113 17.887,21.252 17.941 C 21.391 17.994,21.597 17.963,21.710 17.871 C 21.824 17.780,22.479 17.610,23.167 17.493 C 23.854 17.376,24.492 17.224,24.583 17.154 C 24.735 17.040,27.292 16.483,27.792 16.456 C 27.906 16.450,28.000 16.396,28.000 16.336 C 28.000 16.277,28.731 16.091,29.625 15.924 C 30.519 15.757,31.287 15.569,31.333 15.508 C 31.379 15.446,32.185 15.257,33.125 15.087 C 34.065 14.917,34.833 14.727,34.833 14.665 C 34.833 14.604,35.377 14.457,36.042 14.339 C 37.416 14.094,38.776 13.676,39.750 13.200 C 40.117 13.020,41.054 12.746,41.833 12.590 C 42.612 12.435,43.380 12.238,43.539 12.154 C 43.925 11.949,44.667 11.957,44.667 12.167 C 44.667 12.367,45.116 12.391,45.194 12.195 C 45.245 12.070,47.499 11.516,48.208 11.454 C 48.369 11.440,48.500 11.370,48.500 11.298 C 48.500 11.226,48.703 11.167,48.951 11.167 C 49.409 11.167,51.717 9.026,52.408 7.958 C 52.772 7.397,52.681 7.390,50.481 7.810 M219.958 7.782 C 219.798 7.823,219.535 7.823,219.375 7.782 C 219.215 7.740,219.346 7.705,219.667 7.705 C 219.987 7.705,220.119 7.740,219.958 7.782 M218.500 9.510 C 218.500 10.252,218.438 10.648,218.333 10.583 C 218.242 10.527,218.167 10.260,218.167 9.990 C 218.167 9.721,218.101 9.500,218.020 9.500 C 217.940 9.500,217.993 9.237,218.138 8.917 C 218.491 8.138,218.500 8.153,218.500 9.510 M263.167 10.833 L 263.167 13.333 261.750 13.333 L 260.333 13.333 260.333 14.333 L 260.333 15.333 261.750 15.333 L 263.167 15.333 263.167 21.669 C 263.167 25.154,263.233 28.135,263.314 28.294 C 263.395 28.453,263.554 28.783,263.667 29.026 C 263.780 29.270,264.145 29.599,264.478 29.759 C 264.811 29.919,265.214 30.113,265.373 30.191 C 265.532 30.269,266.376 30.333,267.248 30.333 L 268.833 30.333 268.833 29.250 L 268.833 28.167 267.734 28.167 C 265.441 28.167,265.500 28.357,265.500 20.979 L 265.500 15.333 267.167 15.333 L 268.833 15.333 268.833 14.333 L 268.833 13.333 267.167 13.333 L 265.500 13.333 265.500 10.833 L 265.500 8.333 264.333 8.333 L 263.167 8.333 263.167 10.833 M332.167 10.833 L 332.167 13.333 330.833 13.333 L 329.500 13.333 329.500 14.333 L 329.500 15.333 330.820 15.333 L 332.140 15.333 332.205 21.792 C 332.281 29.322,332.444 30.000,334.176 30.000 C 334.343 30.000,334.527 30.075,334.583 30.167 C 334.641 30.260,335.418 30.333,336.343 30.333 L 338.000 30.333 338.000 29.250 L 338.000 28.167 336.821 28.167 C 335.739 28.167,335.601 28.126,335.154 27.679 L 334.667 27.192 334.667 21.263 L 334.667 15.333 336.333 15.333 L 338.000 15.333 338.000 14.333 L 338.000 13.333 336.333 13.333 L 334.667 13.333 334.667 10.833 L 334.667 8.333 333.417 8.333 L 332.167 8.333 332.167 10.833 M221.399 8.764 C 221.560 9.184,221.506 9.885,221.280 10.292 L 221.072 10.666 220.787 10.184 C 220.539 9.764,220.534 9.689,220.751 9.606 C 220.896 9.550,221.000 9.300,221.000 9.005 C 221.000 8.467,221.231 8.327,221.399 8.764 M220.126 8.875 C 220.020 9.196,219.333 9.242,219.333 8.928 C 219.333 8.758,219.484 8.667,219.764 8.667 C 220.034 8.667,220.169 8.744,220.126 8.875 M219.833 10.224 C 219.833 10.347,219.985 10.586,220.171 10.754 C 220.569 11.114,220.370 11.305,219.698 11.207 C 219.281 11.146,219.243 11.085,219.303 10.570 C 219.367 10.027,219.833 9.722,219.833 10.224 M252.155 12.734 C 252.110 12.779,251.757 12.834,251.370 12.857 C 250.983 12.880,250.667 12.947,250.667 13.006 C 250.667 13.065,250.362 13.205,249.990 13.317 C 249.619 13.428,249.174 13.646,249.002 13.801 C 248.831 13.956,248.586 14.168,248.457 14.272 C 248.329 14.375,248.063 14.675,247.867 14.938 L 247.511 15.417 247.505 14.375 L 247.500 13.333 246.250 13.333 L 245.000 13.333 245.000 21.667 L 245.000 30.000 246.250 30.000 L 247.500 30.000 247.500 24.758 C 247.500 19.806,247.643 17.833,248.003 17.833 C 248.080 17.833,248.195 17.665,248.258 17.458 C 248.436 16.873,249.158 15.995,249.600 15.827 C 249.820 15.743,250.000 15.602,250.000 15.512 C 250.000 15.247,251.163 15.002,252.417 15.002 C 253.700 15.002,254.897 15.263,254.744 15.509 C 254.691 15.596,254.730 15.667,254.830 15.667 C 254.931 15.667,255.175 15.817,255.372 16.000 C 255.569 16.183,255.659 16.334,255.573 16.336 C 255.487 16.337,255.496 16.394,255.592 16.461 C 256.233 16.909,256.333 17.938,256.333 24.047 L 256.333 30.000 257.587 30.000 L 258.841 30.000 258.829 23.724 C 258.819 17.830,258.797 17.391,258.477 16.516 C 258.289 16.003,258.130 15.491,258.123 15.377 C 258.100 14.979,256.742 13.735,256.000 13.433 C 255.588 13.264,255.100 13.066,254.917 12.992 C 254.515 12.829,252.269 12.620,252.155 12.734 M276.125 12.784 C 275.690 12.821,275.333 12.917,275.333 12.996 C 275.333 13.075,275.090 13.191,274.792 13.253 C 274.494 13.315,274.081 13.473,273.875 13.604 C 273.669 13.734,273.500 13.799,273.500 13.747 C 273.500 13.624,273.132 13.935,272.313 14.750 C 271.407 15.653,271.167 15.926,271.167 16.051 C 271.167 16.109,270.982 16.560,270.756 17.054 C 270.251 18.159,270.009 19.171,270.004 20.208 C 270.002 20.644,269.925 21.000,269.833 21.000 C 269.742 21.000,269.667 21.258,269.667 21.573 C 269.667 21.889,269.742 22.193,269.833 22.250 C 269.925 22.307,270.000 22.689,270.000 23.100 C 270.000 24.140,270.474 26.331,270.762 26.619 C 270.893 26.750,271.000 26.926,271.000 27.010 C 271.000 27.571,273.361 29.833,273.946 29.833 C 274.054 29.833,274.274 29.965,274.434 30.125 C 274.789 30.479,280.079 30.573,280.298 30.229 C 280.363 30.126,280.660 29.989,280.958 29.924 C 281.256 29.860,281.500 29.738,281.500 29.653 C 281.500 29.569,281.612 29.500,281.750 29.500 C 281.887 29.500,282.000 29.438,282.000 29.361 C 282.000 29.285,282.188 29.123,282.417 29.000 C 282.646 28.877,282.833 28.695,282.833 28.595 C 282.833 28.495,282.983 28.320,283.167 28.205 C 283.350 28.091,283.500 27.894,283.500 27.769 C 283.500 27.643,283.612 27.448,283.749 27.334 C 283.886 27.220,284.086 26.836,284.192 26.480 C 284.299 26.124,284.447 25.833,284.521 25.833 C 284.595 25.833,284.616 25.728,284.567 25.600 C 284.518 25.472,284.557 25.318,284.655 25.257 C 284.753 25.197,284.833 24.937,284.833 24.681 L 284.833 24.215 283.568 24.182 C 282.872 24.163,282.343 24.214,282.393 24.294 C 282.442 24.375,282.381 24.636,282.257 24.875 C 282.133 25.114,282.075 25.353,282.127 25.405 C 282.179 25.457,282.141 25.500,282.041 25.500 C 281.941 25.500,281.773 25.762,281.667 26.083 C 281.561 26.404,281.392 26.667,281.293 26.667 C 281.193 26.667,281.157 26.713,281.213 26.769 C 281.362 26.917,280.465 27.627,279.723 27.948 C 277.827 28.770,275.385 28.451,274.254 27.235 C 273.403 26.321,273.190 26.032,273.291 25.931 C 273.345 25.877,273.304 25.833,273.201 25.833 C 273.097 25.833,272.931 25.515,272.832 25.125 C 272.732 24.735,272.604 24.304,272.548 24.167 C 272.492 24.029,272.439 23.792,272.431 23.639 C 272.423 23.486,272.360 23.305,272.292 23.236 C 271.586 22.530,271.842 22.500,278.500 22.500 L 284.833 22.500 284.833 21.010 C 284.833 20.190,284.762 19.475,284.674 19.421 C 284.586 19.367,284.559 19.208,284.613 19.067 C 284.667 18.926,284.631 18.647,284.534 18.447 C 284.436 18.247,284.266 17.783,284.155 17.417 C 283.817 16.300,282.134 14.000,281.654 14.000 C 281.569 14.000,281.360 13.860,281.189 13.689 C 281.019 13.519,280.588 13.324,280.232 13.258 C 279.875 13.191,279.546 13.078,279.500 13.007 C 279.394 12.842,277.167 12.695,276.125 12.784 M303.958 12.779 C 303.615 12.820,303.333 12.915,303.333 12.989 C 303.333 13.064,303.102 13.171,302.820 13.228 C 302.256 13.341,301.592 13.788,300.729 14.637 L 300.167 15.190 300.167 14.262 L 300.167 13.333 298.917 13.333 L 297.667 13.333 297.667 21.667 L 297.667 30.000 298.917 30.000 L 300.167 30.000 300.188 24.583 C 300.199 21.604,300.222 19.110,300.239 19.042 C 300.255 18.973,300.328 18.654,300.401 18.333 C 300.578 17.549,301.468 16.262,302.083 15.898 C 302.358 15.735,302.678 15.509,302.794 15.394 C 303.085 15.107,304.298 14.948,305.582 15.030 C 307.291 15.139,308.371 16.088,308.775 17.833 C 308.807 17.971,308.831 20.765,308.829 24.042 L 308.826 30.000 310.121 30.000 L 311.417 30.000 311.386 23.958 C 311.370 20.635,311.320 17.804,311.275 17.667 C 311.231 17.529,311.147 17.079,311.089 16.667 C 310.881 15.192,309.633 13.695,308.294 13.312 C 307.903 13.200,307.508 13.053,307.417 12.986 C 307.202 12.828,304.773 12.683,303.958 12.779 M320.003 12.793 C 319.593 12.828,319.180 12.917,319.087 12.992 C 318.993 13.067,318.657 13.184,318.339 13.252 C 317.521 13.427,317.268 13.584,316.094 14.648 C 315.573 15.121,314.833 16.612,314.833 17.191 C 314.833 17.416,314.749 17.685,314.646 17.788 C 314.098 18.335,314.609 18.750,315.829 18.750 C 317.095 18.750,317.040 18.792,317.252 17.667 C 317.592 15.858,318.654 15.109,320.992 15.027 C 322.588 14.971,324.000 15.196,324.000 15.506 C 324.000 15.595,324.082 15.667,324.182 15.667 C 324.443 15.667,324.988 16.365,324.994 16.708 C 324.998 16.869,325.075 17.000,325.167 17.000 C 325.259 17.000,325.331 17.427,325.328 17.958 C 325.318 19.584,324.853 19.901,322.200 20.089 C 321.269 20.155,320.547 20.275,320.596 20.355 C 320.646 20.435,320.382 20.509,320.010 20.521 C 319.638 20.532,319.277 20.555,319.208 20.572 C 319.140 20.589,318.772 20.660,318.392 20.730 C 316.832 21.016,314.187 22.576,314.585 22.974 C 314.627 23.016,314.543 23.137,314.398 23.243 C 313.799 23.681,313.967 27.990,314.592 28.230 C 314.725 28.281,314.833 28.424,314.833 28.547 C 314.833 29.920,320.972 31.299,322.350 30.236 C 322.478 30.137,322.846 29.953,323.167 29.828 C 323.487 29.703,324.106 29.240,324.541 28.800 C 325.493 27.837,325.445 27.843,325.664 28.658 C 325.959 29.751,326.472 30.021,328.155 29.964 L 329.583 29.917 329.633 28.958 L 329.683 28.000 328.921 28.000 C 327.841 28.000,327.833 27.956,327.833 21.989 C 327.833 19.153,327.776 16.833,327.706 16.833 C 327.636 16.833,327.491 16.463,327.383 16.011 C 327.276 15.558,327.052 15.039,326.886 14.856 C 325.803 13.666,325.667 13.573,324.442 13.183 C 323.318 12.824,321.517 12.666,320.003 12.793 M351.875 12.780 C 351.485 12.820,351.167 12.909,351.167 12.978 C 351.167 13.047,350.781 13.203,350.309 13.324 C 349.215 13.604,346.427 15.648,347.105 15.672 C 347.185 15.675,347.119 15.753,346.958 15.847 C 346.798 15.940,346.667 16.120,346.667 16.246 C 346.667 16.373,346.561 16.581,346.433 16.710 C 346.139 17.004,345.667 18.374,345.667 18.932 C 345.667 19.164,345.605 19.315,345.529 19.268 C 345.390 19.182,345.266 20.308,345.265 21.667 C 345.264 22.803,345.404 24.167,345.520 24.167 C 345.577 24.167,345.673 24.474,345.733 24.849 C 345.889 25.821,347.823 29.231,347.836 28.554 C 347.837 28.479,347.894 28.492,347.961 28.584 C 348.260 28.992,349.367 29.832,349.498 29.751 C 349.578 29.702,349.691 29.737,349.748 29.831 C 349.806 29.924,349.992 30.000,350.163 30.000 C 350.333 30.000,350.503 30.094,350.542 30.208 C 350.635 30.489,355.787 30.508,355.964 30.229 C 356.030 30.126,356.315 29.992,356.598 29.930 C 357.087 29.824,357.694 29.433,358.362 28.792 C 358.530 28.631,358.667 28.548,358.667 28.606 C 358.667 28.830,359.714 27.394,359.869 26.959 C 359.959 26.707,360.089 26.535,360.158 26.578 C 360.292 26.661,360.571 25.827,360.758 24.792 C 360.820 24.448,360.922 24.167,360.986 24.167 C 361.270 24.167,361.319 19.374,361.037 19.180 C 360.960 19.127,360.794 18.645,360.668 18.109 C 360.542 17.573,360.319 16.973,360.173 16.775 C 360.027 16.578,359.803 16.209,359.675 15.956 C 359.362 15.338,357.448 13.610,357.035 13.573 C 356.784 13.550,355.412 13.095,355.333 13.008 C 355.169 12.828,352.881 12.677,351.875 12.780 M370.334 12.782 C 370.014 12.825,369.676 12.916,369.584 12.984 C 369.492 13.051,369.093 13.209,368.698 13.333 C 368.303 13.458,367.907 13.697,367.817 13.863 C 367.728 14.030,367.547 14.167,367.415 14.167 C 367.282 14.167,367.051 14.354,366.901 14.583 C 366.492 15.208,366.333 15.092,366.333 14.167 L 366.333 13.333 365.083 13.333 L 363.833 13.333 363.833 21.667 L 363.833 30.000 365.075 30.000 L 366.317 30.000 366.367 24.292 C 366.411 19.222,366.449 18.527,366.707 18.083 C 366.867 17.808,366.998 17.503,366.999 17.405 C 367.001 17.129,368.165 15.833,368.412 15.833 C 368.532 15.833,368.669 15.735,368.715 15.615 C 369.031 14.792,373.034 14.800,373.552 15.625 C 373.626 15.743,373.752 15.801,373.830 15.752 C 373.909 15.703,374.223 16.095,374.528 16.623 L 375.082 17.583 375.132 23.792 L 375.182 30.000 376.436 30.000 L 377.690 30.000 377.631 23.375 L 377.571 16.750 377.121 15.792 C 376.873 15.265,376.595 14.833,376.502 14.833 C 376.409 14.833,376.333 14.753,376.333 14.655 C 376.333 14.428,375.911 14.000,375.687 14.000 C 375.593 14.000,375.457 13.905,375.383 13.788 C 375.216 13.521,374.421 13.167,373.992 13.167 C 373.813 13.167,373.667 13.104,373.667 13.028 C 373.667 12.951,373.573 12.886,373.458 12.882 C 373.344 12.878,372.725 12.837,372.083 12.789 C 371.442 12.742,370.654 12.738,370.334 12.782 M386.417 12.779 C 385.958 12.816,385.347 12.956,385.058 13.090 C 384.769 13.224,384.426 13.333,384.294 13.333 C 384.163 13.333,383.999 13.390,383.931 13.458 C 383.862 13.527,383.743 13.583,383.665 13.583 C 382.765 13.583,381.065 16.162,380.895 17.785 L 380.794 18.750 382.022 18.725 L 383.250 18.699 383.378 17.808 C 383.448 17.318,383.617 16.833,383.753 16.732 C 383.889 16.630,384.000 16.463,384.000 16.360 C 384.000 16.258,384.206 16.043,384.458 15.883 C 384.710 15.722,384.954 15.545,385.000 15.489 C 385.385 15.020,388.187 14.832,389.580 15.183 C 390.821 15.496,391.504 16.519,391.495 18.053 C 391.486 19.528,391.075 19.829,388.755 20.061 C 387.713 20.165,386.804 20.306,386.736 20.375 C 386.667 20.444,386.380 20.500,386.097 20.500 C 385.433 20.500,383.117 20.983,383.004 21.145 C 382.956 21.213,382.692 21.362,382.417 21.475 C 379.817 22.549,379.294 26.935,381.502 29.143 C 381.790 29.431,382.058 29.667,382.098 29.667 C 382.138 29.667,382.526 29.835,382.960 30.042 C 384.033 30.551,388.412 30.613,388.899 30.125 C 389.059 29.965,389.295 29.833,389.423 29.833 C 389.551 29.833,390.108 29.397,390.661 28.865 C 391.214 28.332,391.667 27.980,391.667 28.083 C 391.667 29.279,392.703 30.000,394.425 30.000 L 395.667 30.000 395.667 29.000 L 395.667 28.000 395.006 28.000 C 394.011 28.000,394.000 27.939,393.999 22.469 C 393.998 17.427,393.870 15.846,393.425 15.401 C 393.283 15.259,393.167 15.076,393.167 14.994 C 393.167 14.516,391.650 13.408,390.771 13.243 C 390.438 13.181,390.167 13.075,390.167 13.009 C 390.167 12.943,390.073 12.887,389.958 12.884 C 389.844 12.881,389.188 12.842,388.500 12.795 C 387.813 12.749,386.875 12.742,386.417 12.779 M292.940 13.439 C 292.495 13.575,292.021 13.776,291.887 13.885 C 291.448 14.241,290.425 15.268,290.042 15.736 L 289.667 16.195 289.667 14.764 L 289.667 13.333 288.500 13.333 L 287.333 13.333 287.333 21.667 L 287.333 30.000 288.575 30.000 L 289.816 30.000 289.866 24.792 L 289.917 19.583 290.393 18.613 C 290.655 18.079,290.974 17.602,291.102 17.553 C 291.229 17.504,291.333 17.362,291.333 17.236 C 291.333 17.111,291.558 16.892,291.833 16.750 C 292.108 16.608,292.333 16.430,292.333 16.354 C 292.333 16.196,293.887 15.667,294.352 15.667 C 294.525 15.667,294.667 15.592,294.667 15.500 C 294.667 15.408,294.929 15.333,295.250 15.333 L 295.833 15.333 295.833 14.250 L 295.833 13.167 294.792 13.178 C 294.219 13.185,293.386 13.302,292.940 13.439 M340.167 21.667 L 340.167 30.000 341.417 30.000 L 342.667 30.000 342.667 21.667 L 342.667 13.333 341.417 13.333 L 340.167 13.333 340.167 21.667 M279.081 15.186 C 279.446 15.288,279.844 15.512,279.965 15.685 C 280.086 15.858,280.292 16.000,280.422 16.000 C 280.552 16.000,280.774 16.225,280.917 16.500 C 281.059 16.775,281.230 17.000,281.296 17.001 C 281.392 17.001,282.015 18.303,282.094 18.667 C 282.104 18.712,282.156 18.862,282.209 19.000 C 282.262 19.137,282.351 19.456,282.406 19.708 L 282.506 20.167 277.295 20.164 C 274.429 20.163,272.158 20.106,272.250 20.039 C 272.342 19.972,272.427 19.842,272.439 19.750 C 272.520 19.156,273.035 17.667,273.160 17.667 C 273.243 17.667,273.363 17.504,273.426 17.305 C 273.973 15.580,276.751 14.539,279.081 15.186 M355.022 15.193 C 355.377 15.299,355.667 15.449,355.667 15.526 C 355.667 15.604,355.760 15.667,355.875 15.668 C 356.126 15.669,357.500 17.039,357.500 17.288 C 357.500 17.385,357.613 17.508,357.750 17.560 C 357.887 17.613,358.000 17.772,358.000 17.913 C 358.000 18.055,358.169 18.526,358.375 18.960 C 358.830 19.918,358.945 23.725,358.527 23.983 C 358.405 24.059,358.319 24.187,358.336 24.269 C 358.386 24.506,357.797 25.833,357.642 25.833 C 357.564 25.833,357.500 25.939,357.500 26.069 C 357.500 26.280,356.807 27.051,356.095 27.633 C 354.453 28.974,351.008 28.524,349.515 26.773 C 349.369 26.602,349.151 26.359,349.030 26.231 C 348.909 26.104,348.871 25.999,348.946 25.997 C 349.022 25.996,348.998 25.940,348.894 25.872 C 348.658 25.720,348.167 24.563,348.167 24.160 C 348.167 23.996,348.073 23.830,347.958 23.792 C 347.695 23.704,347.660 19.717,347.921 19.536 C 348.015 19.470,348.223 18.993,348.383 18.475 C 348.543 17.957,348.784 17.491,348.920 17.438 C 349.056 17.386,349.167 17.248,349.168 17.130 C 349.171 16.872,350.211 15.833,350.468 15.833 C 350.568 15.833,350.710 15.732,350.783 15.608 C 351.115 15.046,353.690 14.794,355.022 15.193 M325.333 23.167 C 325.333 24.083,325.264 24.833,325.180 24.833 C 325.096 24.833,324.976 25.062,324.915 25.341 C 324.854 25.620,324.623 26.043,324.402 26.282 C 324.181 26.520,324.000 26.776,324.000 26.850 C 324.000 26.924,323.737 27.109,323.417 27.261 C 323.096 27.413,322.833 27.602,322.833 27.681 C 322.833 27.840,321.464 28.252,320.381 28.419 C 318.996 28.632,317.324 27.864,316.721 26.737 C 315.971 25.333,316.993 23.004,318.361 23.001 C 318.514 23.000,318.664 22.924,318.695 22.831 C 318.726 22.738,319.689 22.516,320.834 22.337 C 321.979 22.158,323.404 21.905,324.000 21.776 C 324.596 21.646,325.140 21.531,325.208 21.520 C 325.277 21.509,325.333 22.250,325.333 23.167 M391.334 24.958 C 391.229 25.440,391.090 25.833,391.026 25.833 C 390.962 25.833,390.777 26.078,390.616 26.377 C 389.791 27.909,386.587 28.869,384.655 28.163 C 382.815 27.490,381.894 25.208,383.024 24.119 C 383.194 23.955,383.333 23.748,383.333 23.659 C 383.333 23.491,384.654 22.894,384.875 22.962 C 384.944 22.983,385.000 22.937,385.000 22.860 C 385.000 22.629,388.561 22.000,389.068 22.142 C 389.151 22.165,389.264 22.119,389.318 22.038 C 389.372 21.958,389.867 21.823,390.417 21.738 L 391.417 21.583 391.471 22.833 C 391.500 23.521,391.439 24.477,391.334 24.958 " stroke="none" fill="#4c2c6c" fill-rule="evenodd"></path><path id="path2" d="M52.743 7.471 C 52.819 7.604,52.714 7.868,52.480 8.137 L 52.093 8.583 52.582 8.127 C 52.990 7.747,53.033 7.636,52.844 7.461 C 52.661 7.290,52.642 7.292,52.743 7.471 M46.917 8.667 C 46.492 8.849,46.930 8.849,47.500 8.667 C 47.835 8.559,47.851 8.532,47.583 8.528 C 47.400 8.526,47.100 8.588,46.917 8.667 M51.242 9.542 L 50.583 10.250 51.292 9.591 C 51.681 9.229,52.000 8.910,52.000 8.883 C 52.000 8.757,51.855 8.883,51.242 9.542 " stroke="none" fill="#5c892c" fill-rule="evenodd"></path><path id="path3" d="" stroke="none" fill="#546444" fill-rule="evenodd"></path><path id="path4" d="M45.927 9.021 C 45.565 9.105,45.228 9.217,45.177 9.269 C 45.042 9.405,46.369 9.151,46.667 8.984 C 46.975 8.811,46.780 8.821,45.927 9.021 M50.500 10.083 C 50.095 10.496,49.801 10.833,49.847 10.833 C 49.893 10.833,50.262 10.496,50.667 10.083 C 51.072 9.671,51.365 9.333,51.319 9.333 C 51.274 9.333,50.905 9.671,50.500 10.083 M340.958 10.621 C 341.256 10.658,341.744 10.658,342.042 10.621 C 342.340 10.584,342.096 10.553,341.500 10.553 C 340.904 10.553,340.660 10.584,340.958 10.621 M43.609 12.125 C 43.567 12.194,43.787 12.250,44.099 12.250 C 44.411 12.250,44.667 12.194,44.667 12.125 C 44.667 12.056,44.446 12.000,44.177 12.000 C 43.907 12.000,43.652 12.056,43.609 12.125 M40.667 12.833 C 40.332 12.941,40.315 12.968,40.583 12.972 C 40.767 12.974,41.067 12.912,41.250 12.833 C 41.675 12.651,41.237 12.651,40.667 12.833 M311.408 24.083 C 311.408 27.292,311.431 28.581,311.458 26.948 C 311.485 25.315,311.485 22.690,311.458 21.114 C 311.431 19.539,311.408 20.875,311.408 24.083 M315.295 18.787 C 315.594 18.825,316.044 18.824,316.295 18.786 C 316.545 18.748,316.300 18.717,315.750 18.718 C 315.200 18.719,314.995 18.750,315.295 18.787 M381.628 18.787 C 381.928 18.825,382.378 18.824,382.628 18.786 C 382.878 18.748,382.633 18.717,382.083 18.718 C 381.533 18.719,381.328 18.750,381.628 18.787 M269.875 20.417 C 269.877 20.783,269.911 20.914,269.951 20.706 C 269.991 20.499,269.990 20.199,269.948 20.040 C 269.906 19.880,269.874 20.050,269.875 20.417 M269.825 22.879 C 269.906 23.566,269.910 23.569,269.966 23.020 C 269.998 22.711,269.961 22.394,269.883 22.316 C 269.806 22.239,269.779 22.492,269.825 22.879 M277.208 28.448 C 277.369 28.490,277.631 28.490,277.792 28.448 C 277.952 28.406,277.821 28.372,277.500 28.372 C 277.179 28.372,277.048 28.406,277.208 28.448 M319.542 28.448 C 319.702 28.490,319.965 28.490,320.125 28.448 C 320.285 28.406,320.154 28.372,319.833 28.372 C 319.512 28.372,319.381 28.406,319.542 28.448 M352.960 28.451 C 353.168 28.491,353.468 28.490,353.627 28.448 C 353.786 28.406,353.617 28.374,353.250 28.375 C 352.883 28.377,352.753 28.411,352.960 28.451 " stroke="none" fill="#4c3464" fill-rule="evenodd"></path></g></svg>