<?xml version="1.0" standalone="no"?>
<!DOCTYPE svg PUBLIC "-//W3C//DTD SVG 20010904//EN"
 "http://www.w3.org/TR/2001/REC-SVG-20010904/DTD/svg10.dtd">
<svg version="1.0" xmlns="http://www.w3.org/2000/svg"
  width="270px" height="28px" viewBox="0 0 1908.000000 198.000000"
 preserveAspectRatio="xMidYMid meet">

<g transform="translate(0.000000,198.000000) scale(0.100000,-0.100000)"
fill="#000000" stroke="none">
<path d="M3407 1795 c-390 -78 -712 -146 -716 -151 -14 -17 -81 -114 -81 -118
0 -5 767 189 1083 273 395 106 457 124 457 133 0 4 -8 8 -17 7 -10 -1 -337
-65 -726 -144z"/>
<path d="M9633 1651 c-161 -44 -244 -118 -278 -248 -19 -73 -19 -106 1 -172
21 -71 85 -140 163 -175 33 -14 110 -37 173 -51 210 -47 268 -77 268 -140 0
-48 -8 -62 -47 -86 -27 -17 -56 -23 -128 -27 -121 -6 -220 15 -386 83 -14 5
-23 -11 -49 -92 -18 -54 -35 -103 -37 -109 -5 -14 104 -55 212 -80 107 -25
358 -26 458 -1 93 23 173 67 229 124 66 67 91 128 91 224 1 174 -95 265 -345
325 -262 62 -278 70 -278 133 0 41 25 72 73 90 70 27 251 4 369 -47 42 -19 46
-19 51 -4 3 9 21 54 40 99 l36 83 -38 20 c-88 44 -179 62 -346 66 -136 4 -171
1 -232 -15z"/>
<path d="M3990 1535 l0 -105 160 0 160 0 2 -437 3 -438 153 -3 152 -3 0 441 0
440 160 0 160 0 0 105 0 105 -475 0 -475 0 0 -105z"/>
<path d="M5380 1095 l0 -545 375 0 375 0 0 110 0 110 -220 0 -220 0 0 125 0
125 185 0 185 0 0 105 0 105 -185 0 -185 0 0 100 0 100 220 0 220 0 0 105 0
105 -375 0 -375 0 0 -545z"/>
<path d="M6690 1095 l0 -545 388 2 387 3 3 108 3 107 -241 0 -240 0 0 435 0
435 -150 0 -150 0 0 -545z"/>
<path d="M7852 1203 l3 -438 27 -46 c74 -125 216 -182 458 -182 255 -1 415 71
479 213 20 43 21 64 21 468 l0 422 -160 0 -160 0 0 -399 0 -399 -25 -31 c-32
-37 -83 -55 -161 -54 -64 0 -106 17 -139 53 -19 21 -20 38 -23 426 l-3 404
-160 0 -160 0 3 -437z"/>
<path d="M10404 1606 c-28 -28 -34 -42 -34 -76 0 -34 6 -48 34 -76 29 -29 41
-34 79 -34 54 0 91 26 107 75 25 75 -30 145 -113 145 -31 0 -46 -7 -73 -34z
m128 3 c26 -14 48 -67 41 -102 -6 -32 -56 -77 -84 -77 -27 0 -60 18 -81 44
-30 36 -19 102 21 133 20 15 76 17 103 2z"/>
<path d="M10440 1525 c0 -37 4 -65 10 -65 6 0 10 14 10 30 0 39 13 38 41 -2
13 -18 25 -26 27 -19 2 6 -1 18 -8 26 -9 10 -8 19 5 38 24 38 10 57 -41 57
l-44 0 0 -65z m69 42 c14 -17 4 -27 -26 -27 -16 0 -23 6 -23 20 0 23 31 27 49
7z"/>
<path d="M11390 1094 l0 -545 53 3 52 3 3 543 2 542 -55 0 -55 0 0 -546z"/>
<path d="M16240 1565 l0 -75 45 0 45 0 0 75 0 75 -45 0 -45 0 0 -75z"/>
<path d="M18980 1094 l0 -545 48 3 47 3 3 543 2 542 -50 0 -50 0 0 -546z"/>
<path d="M2310 1576 c-551 -113 -1856 -400 -1867 -410 -13 -12 -76 -177 -70
-183 6 -5 1961 468 2013 487 21 8 153 151 138 149 -5 -1 -101 -20 -214 -43z"/>
<path d="M12560 1455 l0 -115 -65 0 -65 0 0 -40 0 -40 65 0 65 0 0 -292 c0
-163 5 -309 10 -329 6 -19 21 -46 34 -58 30 -28 105 -44 169 -35 47 6 47 6 47
44 l0 39 -61 -2 c-102 -2 -99 -11 -99 339 l0 294 80 0 80 0 0 40 0 40 -80 0
-80 0 0 115 0 115 -50 0 -50 0 0 -115z"/>
<path d="M15860 1455 l0 -115 -70 0 -70 0 0 -40 0 -40 69 0 70 0 3 -317 c3
-287 5 -321 21 -344 29 -43 105 -64 189 -53 48 7 48 7 48 45 l0 38 -59 -2
c-46 -1 -65 3 -80 17 -20 18 -21 29 -21 318 l0 298 80 0 80 0 0 40 0 40 -80 0
-80 0 0 115 0 115 -50 0 -50 0 0 -115z"/>
<path d="M11957 1346 c-59 -21 -112 -61 -138 -103 l-24 -38 -3 68 -3 67 -44 0
-45 0 0 -395 0 -395 44 0 44 0 4 263 c4 211 7 270 21 304 39 102 108 153 215
160 89 6 146 -22 182 -87 25 -45 25 -47 28 -343 l3 -298 47 3 47 3 3 240 c4
352 -12 445 -88 508 -61 52 -208 73 -293 43z"/>
<path d="M13145 1351 c-94 -25 -173 -89 -213 -171 -89 -186 -60 -442 65 -562
65 -63 122 -83 238 -83 93 0 105 2 167 33 71 35 104 70 143 154 36 78 34 88
-19 88 -41 0 -45 -2 -55 -32 -44 -126 -167 -190 -302 -158 -98 24 -189 149
-189 260 l0 40 300 0 300 0 0 39 c0 163 -86 321 -202 371 -57 25 -178 36 -233
21z m192 -95 c74 -38 143 -147 143 -226 l0 -30 -250 0 -250 0 0 23 c0 80 73
192 152 231 45 23 62 27 113 23 34 -2 75 -12 92 -21z"/>
<path d="M14480 1351 c-76 -25 -127 -64 -167 -127 -10 -16 -12 -8 -12 49 l-1
67 -45 0 -45 0 0 -395 0 -395 45 0 45 0 0 240 c0 131 5 261 11 289 15 71 59
134 116 168 41 24 59 28 123 28 94 0 138 -24 172 -93 22 -45 23 -57 26 -339
l3 -293 45 0 44 0 0 298 c0 323 -5 362 -54 426 -39 52 -102 78 -199 82 -45 2
-93 0 -107 -5z"/>
<path d="M15227 1349 c-52 -12 -107 -42 -139 -76 -33 -35 -67 -109 -68 -145 0
-26 3 -28 45 -28 41 0 45 2 50 28 21 99 93 152 209 152 102 0 164 -32 192 -97
27 -64 12 -132 -34 -152 -14 -7 -81 -19 -150 -27 -142 -18 -194 -31 -257 -68
-61 -36 -89 -90 -89 -176 0 -143 100 -230 264 -230 97 0 157 24 224 91 33 32
61 59 63 59 1 0 3 -16 3 -35 0 -63 74 -109 145 -91 21 5 25 12 25 46 0 37 -2
40 -22 35 -13 -3 -32 1 -43 9 -19 14 -20 29 -25 288 -5 262 -6 275 -28 313
-27 48 -73 81 -138 101 -52 15 -167 17 -227 3z m301 -485 c-3 -64 -10 -90 -30
-126 -63 -107 -224 -159 -328 -106 -55 29 -80 62 -87 118 -14 102 52 146 276
184 79 13 149 30 155 36 16 16 19 -8 14 -106z"/>
<path d="M16743 1346 c-167 -54 -263 -201 -263 -401 0 -175 75 -312 208 -377
61 -30 74 -33 162 -33 81 0 103 4 151 26 141 66 219 203 219 384 0 242 -139
403 -355 412 -49 2 -96 -2 -122 -11z m223 -94 c174 -89 214 -396 74 -556 -52
-59 -102 -80 -190 -81 -63 0 -82 4 -120 27 -58 34 -82 60 -116 128 -37 74 -46
218 -18 306 19 60 62 124 105 156 69 52 186 60 265 20z"/>
<path d="M17629 1347 c-63 -24 -103 -51 -136 -96 l-33 -43 0 66 0 66 -45 0
-45 0 0 -395 0 -395 45 0 45 0 0 240 c0 267 7 319 53 388 47 69 103 97 197 97
94 0 138 -24 172 -93 22 -45 23 -57 26 -339 l4 -293 44 0 44 0 0 298 c0 323
-5 362 -54 426 -39 51 -102 78 -199 82 -54 3 -94 0 -118 -9z"/>
<path d="M18387 1350 c-117 -30 -207 -128 -207 -226 0 -22 4 -24 44 -24 l44 0
11 47 c27 106 158 160 296 122 83 -23 132 -112 106 -192 -15 -45 -40 -55 -190
-73 -198 -24 -283 -60 -321 -134 -68 -134 -6 -285 135 -325 73 -22 183 -16
247 13 24 10 65 42 91 70 26 29 50 52 52 52 3 0 5 -15 5 -34 0 -49 32 -84 84
-91 68 -11 86 -1 86 46 0 37 -2 39 -24 33 -17 -4 -31 1 -45 15 -20 20 -21 31
-21 279 0 229 -2 261 -19 297 -23 50 -64 89 -116 111 -47 20 -201 28 -258 14z
m303 -448 c0 -175 -90 -277 -254 -289 -50 -4 -69 0 -106 19 -56 29 -90 78 -90
130 0 99 61 136 280 172 78 13 144 27 147 30 17 17 23 0 23 -62z"/>
<path d="M14005 1336 c-84 -26 -130 -63 -174 -136 l-21 -35 0 88 0 87 -45 0
-45 0 0 -395 0 -395 45 0 45 0 0 209 c0 114 4 232 10 260 25 134 107 214 234
230 l51 6 3 48 3 47 -33 -1 c-18 0 -51 -6 -73 -13z"/>
<path d="M16240 945 l0 -395 45 0 45 0 0 395 0 395 -45 0 -45 0 0 -395z"/>
</g>
</svg>
